<?xml version="1.0" standalone="no"?><!DOCTYPE svg PUBLIC "-//W3C//DTD SVG 1.1//EN" "http://www.w3.org/Graphics/SVG/1.1/DTD/svg11.dtd"><svg class="icon" height="512" viewBox="0 0 1024 1024" version="1.1" xmlns="http://www.w3.org/2000/svg"><path d="M643.749038 527.800962C712.503846 483.360576 758.127884 405.251924 758.127884 316.309616 758.127884 177.977885 647.791346 65.845192 511.686538 65.845192 375.591346 65.845192 265.254808 177.977885 265.254808 316.309616 265.254808 405.250962 310.878846 483.359616 379.63077 527.8 223.504808 585.51827 111.238462 742.59423 111.238462 926.84423 111.238462 944.15 125.035577 958.152884 142.042308 958.152884 159.055769 958.152884 172.852885 944.149038 172.852885 926.84423 172.852885 728.327884 324.857692 566.804808 511.6875 566.804808 698.528846 566.804808 850.53077 728.328846 850.53077 926.84423 850.53077 944.15 864.327884 958.152884 881.34423 958.152884 898.348076 958.152884 912.145192 944.149038 912.145192 926.84423 912.145192 742.595192 799.878846 585.520192 643.749038 527.800962L643.749038 527.800962ZM511.6875 504.186538C409.622116 504.186538 326.870192 420.085576 326.870192 316.341346 326.870192 212.59327 409.622116 128.496154 511.6875 128.496154 613.765384 128.496154 696.514424 212.59423 696.514424 316.341346 696.514424 420.085576 613.765384 504.186538 511.6875 504.186538L511.6875 504.186538Z" /></svg>